<?xml version="1.0" standalone="no"?>
<!DOCTYPE svg PUBLIC "-//W3C//DTD SVG 20010904//EN"
 "http://www.w3.org/TR/2001/REC-SVG-20010904/DTD/svg10.dtd">
<svg version="1.0" xmlns="http://www.w3.org/2000/svg"
 width="250.000000pt" height="37.000000pt" viewBox="0 0 250.000000 37.000000"
 preserveAspectRatio="xMidYMid meet">
<metadata>
Created by potrace 1.15, written by Peter Selinger 2001-2017
</metadata>
<g transform="translate(0.000000,37.000000) scale(0.100000,-0.100000)"
fill="#000000" stroke="none">
<path d="M979 323 c-10 -2 -15 -11 -13 -21 3 -9 -9 -57 -26 -106 -16 -50 -30
-93 -30 -98 0 -19 28 -6 39 19 12 27 13 27 27 9 7 -10 15 -24 17 -30 2 -7 13
-7 33 3 29 13 29 13 7 22 -31 11 -29 21 7 41 32 18 41 54 16 64 -8 3 -27 -2
-43 -11 -22 -12 -23 -14 -5 -10 31 9 29 -20 -3 -41 -27 -17 -47 -12 -28 7 6 6
9 17 7 24 -3 7 4 36 15 66 28 74 28 75 -20 62z"/>
<path d="M1570 321 c-16 -4 -21 -10 -13 -14 8 -5 3 -32 -19 -98 -27 -81 -29
-93 -15 -106 22 -23 71 -8 107 33 33 38 38 65 14 85 -13 10 -20 10 -45 -5 -16
-9 -29 -15 -29 -13 0 2 11 31 24 65 25 64 24 66 -24 53z"/>
<path d="M321 302 c9 -14 5 -36 -15 -102 -15 -47 -34 -91 -43 -97 -29 -22 114
-16 163 6 70 32 100 101 70 159 -19 36 -59 52 -133 52 -49 0 -52 -2 -42 -18z
m127 -19 c18 -25 15 -84 -8 -120 -21 -35 -74 -68 -96 -59 -20 8 -18 28 12 124
25 82 26 84 52 77 15 -3 33 -13 40 -22z"/>
<path d="M1122 310 c12 -7 19 -37 29 -115 7 -59 17 -105 23 -105 6 0 24 21 41
47 l30 47 7 -43 c7 -42 14 -59 21 -50 2 2 32 46 67 97 34 51 74 101 88 112
l25 20 -36 0 c-29 0 -35 -3 -30 -16 3 -9 -14 -43 -43 -85 -39 -57 -50 -67 -55
-52 -16 39 -8 63 34 108 l44 45 -34 0 c-22 0 -32 -4 -27 -11 7 -12 -15 -59
-28 -59 -13 0 -9 58 5 63 6 3 -8 6 -33 6 -25 0 -40 -3 -33 -7 6 -4 15 -30 18
-58 6 -41 3 -57 -11 -78 -15 -24 -19 -25 -27 -11 -5 9 -9 47 -10 86 l-2 69
-40 0 c-31 -1 -36 -3 -23 -10z"/>
<path d="M1731 302 c9 -14 5 -36 -15 -102 -15 -47 -34 -91 -43 -97 -29 -22
114 -16 163 6 70 32 100 101 70 159 -19 36 -59 52 -133 52 -49 0 -52 -2 -42
-18z m127 -19 c18 -25 15 -84 -8 -120 -21 -35 -74 -68 -96 -59 -20 8 -18 28
12 124 25 82 26 84 52 77 15 -3 33 -13 40 -22z"/>
</g>
</svg>
